<?xml version="1.0" encoding="UTF-8" standalone="no"?>
<!-- Created with Inkscape (http://www.inkscape.org/) -->

<svg
   xmlns:dc="http://purl.org/dc/elements/1.1/"
   xmlns:cc="http://creativecommons.org/ns#"
   xmlns:rdf="http://www.w3.org/1999/02/22-rdf-syntax-ns#"
   xmlns:svg="http://www.w3.org/2000/svg"
   xmlns="http://www.w3.org/2000/svg"
   xmlns:sodipodi="http://sodipodi.sourceforge.net/DTD/sodipodi-0.dtd"
   xmlns:inkscape="http://www.inkscape.org/namespaces/inkscape"
   width="274.86758mm"
   height="28.851942mm"
   viewBox="0 0 274.86758 28.851942"
   version="1.1"
   id="svg1492"
   sodipodi:docname="cloud.svg"
   inkscape:version="0.92.5 (2060ec1f9f, 2020-04-08)">
  <defs
     id="defs1486" />
  <sodipodi:namedview
     id="base"
     pagecolor="#ffffff"
     bordercolor="#666666"
     borderopacity="1.0"
     inkscape:pageopacity="0.0"
     inkscape:pageshadow="2"
     inkscape:zoom="0.98994949"
     inkscape:cx="471.92117"
     inkscape:cy="10.741223"
     inkscape:document-units="mm"
     inkscape:current-layer="g2160"
     showgrid="false"
     fit-margin-top="0"
     fit-margin-left="0"
     fit-margin-right="0"
     fit-margin-bottom="0"
     inkscape:window-width="1920"
     inkscape:window-height="1016"
     inkscape:window-x="0"
     inkscape:window-y="27"
     inkscape:window-maximized="1" />
  <metadata
     id="metadata1489">
    <rdf:RDF>
      <cc:Work
         rdf:about="">
        <dc:format>image/svg+xml</dc:format>
        <dc:type
           rdf:resource="http://purl.org/dc/dcmitype/StillImage" />
        <dc:title></dc:title>
      </cc:Work>
    </rdf:RDF>
  </metadata>
  <g
     inkscape:label="Layer 1"
     inkscape:groupmode="layer"
     id="layer1"
     transform="translate(-38.132616,-70.627399)">
    <g
       id="g2170"
       transform="matrix(1,0,0,0.87140799,0,9.7221784)">
      <g
         id="g2160">
        <g
           transform="matrix(0.26458333,0,0,0.30362739,-18.964941,18.078035)"
           id="g2582">
          <g
             id="g2574">
            <g
               id="g2568">
              <path
                 inkscape:connector-curvature="0"
                 style="fill:#e8f6ff"
                 d="m 250.201,230.038 c -0.119,0.019 -0.187,-0.046 -0.261,-0.091 -1.52,-0.923 -3.178,-1.451 -4.94,-1.598 -1.707,-0.143 -3.336,0.218 -4.871,0.983 -1.014,0.506 -1.936,1.137 -2.722,1.962 -1.045,1.098 -1.813,2.356 -2.247,3.813 -0.106,0.355 -0.116,0.355 -0.423,0.145 -1.748,-1.197 -3.658,-1.965 -5.774,-2.197 -3.411,-0.374 -6.467,0.507 -9.086,2.711 -2.314,1.947 -3.653,4.468 -3.993,7.487 -0.375,3.334 0.539,6.31 2.618,8.919 1.977,2.481 4.571,3.957 7.687,4.5 1.358,0.237 2.728,0.224 4.089,-0.02 0.243,-0.044 0.372,-0.023 0.462,0.268 0.747,2.419 1.96,4.589 3.635,6.483 1.959,2.216 4.278,3.959 6.996,5.155 1.493,0.657 3.024,1.21 4.607,1.601 1.34,0.332 2.697,0.57 4.075,0.709 0.942,0.095 1.885,0.153 2.829,0.198 0.856,0.041 1.714,-0.042 2.568,-0.112 1.489,-0.121 2.949,-0.415 4.384,-0.823 2.689,-0.766 5.255,-1.827 7.627,-3.319 1.716,-1.079 3.177,-2.439 4.243,-4.178 0.567,-0.925 1.067,-1.893 1.346,-2.953 0.066,-0.25 0.156,-0.263 0.366,-0.133 1.732,1.075 3.643,1.682 5.614,2.137 1.099,0.254 2.212,0.4 3.331,0.503 1.209,0.112 2.425,0.108 3.638,0.065 3.302,-0.115 6.499,-0.733 9.547,-2.044 2.137,-0.919 4.083,-2.144 5.874,-3.622 1.085,-0.896 2.082,-1.879 2.888,-3.034 0.99,-1.42 1.731,-2.963 2.124,-4.658 0.158,-0.682 0.305,-1.363 0.31,-2.073 0.005,-0.81 -0.203,-1.541 -0.677,-2.192 -0.142,-0.195 -0.132,-0.298 0.077,-0.441 1.837,-1.265 3.051,-2.965 3.44,-5.18 0.28,-1.596 0.029,-3.139 -0.661,-4.611 -0.454,-0.968 -1.069,-1.823 -1.82,-2.571 -0.888,-0.883 -1.917,-1.579 -3.066,-2.087 -1.247,-0.551 -2.545,-0.876 -3.914,-0.95 -2.562,-0.138 -4.881,0.491 -6.919,2.077 -0.023,0.018 -0.047,0.036 -0.074,0.049 -0.017,0.008 -0.037,0.009 -0.058,0.014 -0.074,-0.052 -0.017,-0.106 0.004,-0.151 0.831,-1.745 1.337,-3.589 1.55,-5.501 0.188,-1.69 0.144,-3.382 -0.159,-5.068 -0.408,-2.273 -1.224,-4.385 -2.413,-6.354 -1.064,-1.76 -2.402,-3.293 -3.937,-4.661 -2.365,-2.107 -5.083,-3.591 -8.066,-4.606 -1.657,-0.564 -3.365,-0.918 -5.103,-1.133 -1.059,-0.13 -2.123,-0.18 -3.186,-0.169 -1.787,0.019 -3.557,0.205 -5.309,0.59 -2.104,0.462 -4.12,1.159 -6.035,2.138 -2.502,1.278 -4.708,2.945 -6.583,5.049 -1.338,1.501 -2.431,3.158 -3.251,4.989 -0.869,1.941 -1.401,3.969 -1.546,6.103 -0.176,2.601 0.17,5.114 1.094,7.55 0.035,0.101 0.09,0.198 0.071,0.332 z"
                 id="path2566" />
            </g>
            <g
               id="g2572">
              <path
                 inkscape:connector-curvature="0"
                 style="fill:#bbd8ff"
                 d="m 221.276,249.114 c 2.661,1.487 8.681,1.923 11.753,1.496 0.757,2.083 1.896,4.021 3.452,5.675 5.326,5.66 10.452,6.173 17.907,5.757 8.879,-0.495 17.89,-9.593 16.532,-11.018 2.445,2.567 7.843,4.251 11.541,3.909 1.205,-0.112 2.346,-0.39 3.409,-0.809 4.08,-1.609 9.162,-4.171 10.211,-8.871 1.632,-7.311 -6.179,-11.611 -12.223,-12.848 0,0 2.811,-3.099 3.804,-5.775 2.251,-6.071 1.011,-15.193 -3.569,-20.044 4.385,4.645 9.088,6.491 10.369,13.625 0.303,1.686 0.347,3.378 0.159,5.068 -0.213,1.912 -0.719,3.756 -1.55,5.501 -0.021,0.045 -0.078,0.099 -0.004,0.151 0.021,-0.005 0.042,-0.005 0.058,-0.014 0.026,-0.014 0.05,-0.031 0.074,-0.049 2.038,-1.586 4.357,-2.216 6.919,-2.077 1.37,0.074 2.667,0.399 3.914,0.95 1.149,0.508 2.179,1.204 3.066,2.087 0.751,0.747 1.366,1.603 1.82,2.571 0.69,1.472 0.941,3.016 0.661,4.611 -0.389,2.215 -1.602,3.915 -3.44,5.18 -0.209,0.144 -0.219,0.246 -0.077,0.441 0.474,0.651 0.682,1.382 0.677,2.192 -0.005,0.71 -0.152,1.391 -0.31,2.073 -0.393,1.695 -1.134,3.239 -2.124,4.658 -0.806,1.155 -1.803,2.138 -2.888,3.034 -1.791,1.478 -3.737,2.703 -5.874,3.622 -3.049,1.311 -6.245,1.929 -9.547,2.044 -1.213,0.042 -2.429,0.046 -3.638,-0.065 -1.118,-0.103 -2.232,-0.249 -3.331,-0.503 -1.971,-0.456 -3.882,-1.062 -5.614,-2.137 -0.21,-0.13 -0.3,-0.118 -0.366,0.133 -0.28,1.06 -0.779,2.028 -1.346,2.953 -1.066,1.739 -2.527,3.099 -4.243,4.178 -2.372,1.492 -4.938,2.553 -7.627,3.319 -1.435,0.408 -2.895,0.702 -4.384,0.823 -0.854,0.069 -1.712,0.152 -2.568,0.112 -0.943,-0.045 -1.887,-0.103 -2.829,-0.198 -1.378,-0.14 -2.735,-0.378 -4.075,-0.709 -1.583,-0.392 -3.114,-0.944 -4.607,-1.601 -2.718,-1.196 -5.037,-2.939 -6.996,-5.155 -1.675,-1.894 -2.888,-4.064 -3.635,-6.483 -0.09,-0.291 -0.219,-0.311 -0.462,-0.268 -1.361,0.244 -2.731,0.257 -4.09,0.02 -3.116,-0.543 -5.71,-2.019 -7.687,-4.5 -1.678,-2.105 -2.595,-4.45 -2.691,-7.028 1.695,1.546 3.546,2.894 5.469,3.969 z"
                 id="path2570" />
            </g>
          </g>
          <path
             inkscape:connector-curvature="0"
             style="fill:#ffffff"
             d="m 255.045,225.439 c 1.456,6.479 5.969,0.864 12.75,-0.66 6.781,-1.524 13.262,1.621 11.806,-4.858 -1.456,-6.479 -8.133,-10.496 -14.914,-8.973 -6.781,1.524 -11.098,8.012 -9.642,14.491 z"
             id="path2576" />
          <path
             inkscape:connector-curvature="0"
             style="fill:#bbd8ff"
             d="m 246.754,244.061 c -0.18,0.606 -0.398,1.124 -0.668,1.579 -0.29,0.451 -0.603,0.839 -0.944,1.178 -0.69,0.673 -1.469,1.156 -2.247,1.458 -0.798,0.302 -1.486,0.388 -2.291,0.364 -0.781,-0.036 -1.577,-0.19 -2.368,-0.478 -1.607,-0.578 -3.079,-1.533 -4.494,-2.947 -1.433,-1.395 -2.732,-3.18 -4.303,-5.1 -0.385,2.449 -0.009,4.958 1.158,7.296 1.147,2.321 3.319,4.424 6.016,5.349 1.348,0.465 2.836,0.674 4.322,0.483 1.462,-0.178 2.994,-0.821 4.083,-1.789 1.103,-0.965 1.899,-2.207 2.25,-3.554 0.345,-1.337 0.204,-2.803 -0.514,-3.839 z"
             id="path2578" />
          <path
             inkscape:connector-curvature="0"
             style="fill:#bbd8ff"
             d="m 276.754,244.061 c -0.18,0.606 -0.398,1.124 -0.668,1.579 -0.29,0.451 -0.603,0.839 -0.944,1.178 -0.69,0.673 -1.469,1.156 -2.247,1.458 -0.798,0.302 -1.487,0.388 -2.291,0.364 -0.781,-0.036 -1.577,-0.19 -2.368,-0.478 -1.607,-0.578 -3.079,-1.533 -4.494,-2.947 -1.433,-1.395 -2.732,-3.18 -4.303,-5.1 -0.385,2.449 -0.009,4.958 1.158,7.296 1.147,2.321 3.319,4.424 6.016,5.349 1.348,0.465 2.836,0.674 4.322,0.483 1.462,-0.178 2.994,-0.821 4.083,-1.789 1.103,-0.965 1.899,-2.207 2.25,-3.554 0.345,-1.337 0.204,-2.803 -0.514,-3.839 z"
             id="path2580" />
        </g>
        <g
           transform="matrix(0.26458333,0,0,0.30362739,71.084358,56.907601)"
           id="g2504">
          <g
             id="g2498">
            <g
               id="ZMWCTS.tif">
              <g
                 id="g2490">
                <path
                   inkscape:connector-curvature="0"
                   style="fill:#e8f6ff"
                   d="m 175.444,129.409 c 0.149,0.05 0.254,-0.049 0.355,-0.121 2.497,-1.786 5.357,-2.426 8.347,-2.736 3.875,-0.401 8.435,0.952 11.07,4.132 1.239,1.495 4.511,10.965 0.516,11.173 -4.207,0.219 -157.436,0.061 -161.773,0.047 -0.915,-0.003 -0.948,-0.011 -0.923,-0.897 0.146,-5.36 3.745,-11.086 9.361,-11.945 1.92,-0.294 3.825,-0.129 5.717,0.237 0.436,0.084 0.657,-0.028 0.867,-0.435 1.77,-3.424 4.662,-5.271 8.417,-5.785 1.039,-0.142 2.077,0.162 3.037,0.63 0.113,0.055 0.223,0.146 0.401,0.06 -0.07,-0.848 -0.171,-1.706 -0.194,-2.574 -0.119,-4.404 1.353,-8.277 3.984,-11.716 3.327,-4.349 9.376,-8.006 14.967,-8.911 4.241,-0.687 8.338,-0.122 12.184,1.897 0.816,0.428 0.823,0.425 0.822,-0.479 -0.01,-4.812 1.445,-9.19 4.019,-13.204 2.517,-3.926 5.881,-6.99 9.895,-9.344 4.314,-2.529 8.972,-4.015 13.935,-4.594 15.19,-1.772 32.566,6.15 37.381,21.503 1.716,5.472 1.579,10.906 -0.433,16.285 -0.068,0.182 -0.234,0.396 -0.123,0.551 0.153,0.215 0.407,0.037 0.6,-0.013 7.826,-2.021 15.96,3.333 17.471,11.323 0.289,1.53 0.357,3.068 0.06,4.608 -0.019,0.107 -0.045,0.214 0.04,0.308 z"
                   id="path2488" />
              </g>
            </g>
            <g
               id="ZMWCTS.tif_1_">
              <g
                 id="g2495">
                <path
                   inkscape:connector-curvature="0"
                   style="fill:#bbd8ff"
                   d="M 197.437,136.75 H 56.772 c -4.106,0 -4.521,-5.711 -1.265,-6.889 0.003,-0.003 0.005,-0.007 0.007,-0.01 2.23,-2.807 5.948,-3.732 9.516,-3.591 0.823,-7.527 5.58,-14.318 12.098,-18.193 7.055,-4.195 15.244,-4.312 22.072,-0.244 0.092,-5.148 0.617,-10.464 3.448,-14.881 3.153,-4.921 8.396,-8.423 13.259,-11.481 4.238,-2.666 8.842,-4.937 13.63,-6.551 -3.039,-0.382 -6.106,-0.414 -9.088,-0.066 -4.963,0.579 -9.621,2.064 -13.935,4.594 -4.014,2.353 -7.377,5.418 -9.895,9.344 -2.574,4.014 -4.029,8.392 -4.019,13.204 0.002,0.903 -0.005,0.907 -0.822,0.479 -3.846,-2.019 -7.943,-2.583 -12.184,-1.897 -5.592,0.905 -11.641,4.562 -14.967,8.911 -2.631,3.439 -4.103,7.312 -3.984,11.716 0.023,0.868 0.124,1.727 0.194,2.574 -0.178,0.086 -0.288,-0.005 -0.401,-0.06 -0.96,-0.468 -1.998,-0.772 -3.037,-0.63 -3.755,0.514 -6.647,2.361 -8.417,5.785 -0.21,0.407 -0.432,0.519 -0.867,0.435 -1.892,-0.366 -3.797,-0.531 -5.717,-0.237 -5.617,0.859 -9.215,6.585 -9.361,11.945 -0.024,0.886 0.008,0.894 0.923,0.897 4.337,0.014 157.565,0.172 161.773,-0.047 1.998,-0.104 2.178,-2.526 1.704,-5.107 z"
                   id="path2493" />
              </g>
            </g>
          </g>
          <path
             inkscape:connector-curvature="0"
             style="fill:#ffffff"
             d="m 149.73,102.111 c -1.734,5.229 -9.987,-0.992 -18.434,-3.792 -8.447,-2.8 -13.889,-1.12 -12.156,-6.349 1.734,-5.229 9.987,-7.198 18.434,-4.397 8.448,2.799 13.89,9.309 12.156,14.538 z"
             id="path2500" />
          <path
             inkscape:connector-curvature="0"
             style="fill:#bbd8ff"
             d="m 95.586,113.666 c 0.011,2.195 0.145,3.987 0.495,5.595 0.342,1.601 0.89,2.924 1.639,4.006 0.669,0.968 1.729,1.885 3.064,2.544 1.346,0.633 2.889,1.151 5.062,0.726 -0.363,1.063 -1.258,1.937 -2.323,2.49 -1.074,0.553 -2.317,0.779 -3.544,0.725 -2.445,-0.117 -4.934,-1.353 -6.472,-3.585 -1.465,-2.115 -1.873,-4.74 -1.434,-6.996 0.442,-2.263 1.643,-4.306 3.513,-5.505 z"
             id="path2502" />
        </g>
        <g
           transform="matrix(0.26458333,0,0,0.30362739,130.85709,10.472626)"
           id="g2486">
          <g
             id="g2478">
            <g
               id="uBVTWt.tif">
              <g
                 id="g2463">
                <path
                   inkscape:connector-curvature="0"
                   style="fill:#e8f6ff"
                   d="m 196.637,249.582 c 0,0.693 0,1.386 0,2.078 -0.076,0.528 -0.136,1.058 -0.23,1.583 -0.752,4.212 -2.744,7.729 -6.068,10.418 -3.979,3.219 -8.472,4.442 -13.52,3.139 -0.45,-0.116 -0.636,0.006 -0.815,0.415 -1.852,4.225 -5.007,7.106 -9.244,8.829 -3.278,1.333 -6.689,1.699 -10.191,1.235 -4.128,-0.546 -7.815,-2.124 -11.03,-4.774 -0.365,-0.301 -0.624,-0.296 -0.974,0.006 -1.249,1.077 -2.674,1.819 -4.295,2.171 -1.645,0.357 -3.233,0.271 -4.671,-0.686 -0.379,-0.252 -0.541,-0.181 -0.776,0.148 -1.299,1.816 -2.826,3.42 -4.602,4.775 -5.118,3.903 -10.867,5.567 -17.25,4.551 -6.342,-1.009 -11.301,-4.309 -14.945,-9.585 -0.244,-0.353 -0.428,-0.422 -0.834,-0.245 -2.342,1.023 -4.77,1.5 -7.319,0.971 -1.951,-0.404 -3.734,-1.148 -5.08,-2.693 -1.26,-1.447 -2.12,-3.122 -2.688,-4.943 -0.142,-0.456 -0.33,-0.534 -0.776,-0.433 -2.393,0.542 -4.819,0.732 -7.265,0.506 -3.235,-0.299 -6.3,-1.179 -9.164,-2.736 -3.87,-2.103 -6.86,-5.076 -8.901,-8.985 -1.073,-2.057 -1.762,-4.241 -2.037,-6.547 -0.059,-0.496 -0.237,-0.752 -0.771,-0.884 -2.416,-0.593 -4.552,-1.731 -6.339,-3.48 -3.013,-2.949 -4.393,-6.527 -3.9,-10.724 0.398,-3.39 1.959,-6.229 4.58,-8.424 3.995,-3.345 8.562,-4.33 13.614,-3.13 0.631,0.15 0.657,0.134 0.671,-0.53 0.031,-1.497 0.17,-2.985 0.53,-4.442 1.095,-4.432 3.454,-8.071 6.979,-10.948 3.749,-3.06 8.072,-4.654 12.899,-4.814 2.541,-0.084 5.025,0.334 7.394,1.28 5.188,2.071 8.731,5.714 10.464,11.063 0.041,0.126 0.033,0.284 0.236,0.369 0.12,-0.413 0.226,-0.818 0.354,-1.217 1.343,-4.18 3.794,-7.607 7.139,-10.409 4.465,-3.74 9.637,-5.778 15.427,-6.178 3.066,-0.212 6.099,0.114 9.036,1.106 3.456,1.168 6.477,3.002 8.83,5.828 3.527,4.235 4.705,9.084 3.693,14.483 -0.085,0.454 -0.19,0.905 -0.291,1.377 0.246,-0.011 0.335,-0.159 0.427,-0.273 0.589,-0.726 1.292,-1.335 2.018,-1.911 4.357,-3.459 9.312,-4.846 14.81,-4.054 4.489,0.647 8.282,2.687 11.311,6.099 2.777,3.128 4.28,6.796 4.563,10.949 0.179,2.64 -0.256,5.208 -1.216,7.681 -0.054,0.138 -0.204,0.31 -0.065,0.43 0.13,0.112 0.292,-0.047 0.429,-0.109 2.595,-1.192 5.312,-1.644 8.146,-1.282 3.045,0.389 5.654,1.71 7.786,3.902 1.735,1.784 2.867,3.927 3.468,6.35 0.223,0.889 0.303,1.796 0.453,2.694 z"
                   id="path2461" />
              </g>
            </g>
            <g
               id="uBVTWt.tif_2_">
              <g
                 id="g2470">
                <path
                   inkscape:connector-curvature="0"
                   style="fill:#ffffff"
                   d="m 91.261,209.001 c 2.287,2.947 4.489,6.2 6.441,9.648 1.036,-0.948 2.086,-1.881 3.182,-2.764 7.82,-6.305 17.349,-11.266 27.715,-10.21 6.462,0.658 12.086,3.417 16.498,7.435 -0.206,-3.576 -1.501,-6.875 -3.989,-9.863 -2.353,-2.826 -5.374,-4.66 -8.83,-5.828 -2.936,-0.992 -5.97,-1.318 -9.036,-1.106 -5.79,0.4 -10.963,2.439 -15.427,6.178 -3.345,2.801 -5.796,6.229 -7.139,10.409 -0.128,0.399 -0.234,0.804 -0.354,1.217 -0.203,-0.084 -0.195,-0.242 -0.236,-0.369 -1.732,-5.348 -5.276,-8.992 -10.464,-11.063 -1.861,-0.743 -3.796,-1.149 -5.771,-1.253 2.807,2.16 5.269,4.81 7.41,7.569 z"
                   id="path2466" />
                <path
                   inkscape:connector-curvature="0"
                   style="fill:#ffffff"
                   d="m 148.826,217.17 c 3.476,-0.425 7.143,-0.24 10.897,0.677 7.337,1.792 14.283,6.63 17.95,13.326 0.002,-0.417 -0.005,-0.835 -0.034,-1.256 -0.282,-4.153 -1.785,-7.82 -4.563,-10.949 -3.029,-3.412 -6.822,-5.452 -11.311,-6.099 -5.062,-0.729 -9.656,0.411 -13.754,3.291 0.278,0.332 0.552,0.666 0.815,1.01 z"
                   id="path2468" />
              </g>
            </g>
            <g
               id="uBVTWt.tif_1_">
              <g
                 id="g2475">
                <path
                   inkscape:connector-curvature="0"
                   style="fill:#bbd8ff"
                   d="m 196.186,246.888 c -0.402,-1.619 -1.046,-3.11 -1.944,-4.456 -2.479,7.607 -10.25,13.308 -18.296,13.308 -1.855,0 -3.623,-0.268 -5.287,-0.756 -3.309,6.056 -10.049,10.305 -16.996,10.305 -7.331,0 -13.358,-4.103 -16.579,-10.012 -3.009,6.738 -10.207,11.603 -17.64,11.603 -6.398,0 -11.792,-3.133 -15.203,-7.858 -0.436,0.564 -0.872,1.128 -1.308,1.693 -1.439,1.429 -3.135,2.418 -5.089,2.967 -3.656,1.026 -8.613,-0.149 -11.23,-2.967 -1.125,-1.045 -1.921,-2.283 -2.386,-3.714 -0.226,-0.431 -0.4,-0.875 -0.55,-1.327 -1.24,0.619 -2.552,1.091 -3.921,1.367 -5.741,1.155 -11.65,-0.431 -15.871,-4.576 -2.45,-2.406 -3.975,-5.265 -4.913,-8.361 -2.196,-2.112 -3.591,-5.052 -3.591,-8.26 0,-5.894 4.74,-10.949 10.526,-11.486 1.247,-0.745 2.631,-1.271 4.098,-1.5 -0.39,-1.455 -0.628,-2.971 -0.698,-4.522 -0.314,-7.006 4.003,-13.302 9.934,-16.623 -3.638,0.605 -6.958,2.092 -9.916,4.506 -3.524,2.877 -5.884,6.516 -6.979,10.948 -0.36,1.457 -0.499,2.944 -0.53,4.442 -0.014,0.664 -0.04,0.68 -0.671,0.53 -5.052,-1.2 -9.619,-0.215 -13.614,3.13 -2.621,2.195 -4.182,5.034 -4.58,8.424 -0.493,4.197 0.887,7.775 3.9,10.724 1.787,1.749 3.923,2.887 6.339,3.48 0.534,0.131 0.712,0.387 0.771,0.884 0.276,2.306 0.964,4.49 2.037,6.547 2.04,3.909 5.03,6.882 8.901,8.985 2.864,1.556 5.93,2.437 9.164,2.736 2.446,0.226 4.872,0.035 7.265,-0.506 0.445,-0.101 0.633,-0.023 0.776,0.433 0.568,1.821 1.428,3.496 2.688,4.943 1.345,1.545 3.129,2.289 5.08,2.693 2.549,0.529 4.977,0.052 7.319,-0.971 0.406,-0.177 0.59,-0.109 0.834,0.245 3.644,5.276 8.602,8.575 14.945,9.585 6.382,1.016 12.132,-0.648 17.25,-4.551 1.776,-1.355 3.303,-2.959 4.602,-4.775 0.235,-0.329 0.397,-0.401 0.776,-0.148 1.438,0.957 3.025,1.043 4.671,0.686 1.621,-0.352 3.046,-1.094 4.295,-2.171 0.35,-0.302 0.608,-0.307 0.974,-0.006 3.215,2.65 6.902,4.228 11.03,4.774 3.502,0.464 6.913,0.098 10.191,-1.235 4.237,-1.723 7.392,-4.604 9.244,-8.829 0.179,-0.409 0.365,-0.531 0.815,-0.415 5.048,1.303 9.542,0.08 13.52,-3.139 3.324,-2.689 5.316,-6.207 6.068,-10.419 0.094,-0.525 0.154,-1.055 0.23,-1.583 v -2.078 c -0.15,-0.898 -0.23,-1.805 -0.451,-2.694 z"
                   id="path2473" />
              </g>
            </g>
          </g>
          <path
             inkscape:connector-curvature="0"
             style="fill:#bbd8ff"
             d="m 81.882,253.132 c 1.626,0.363 2.81,0.495 3.934,0.571 1.109,0.077 2.123,0.093 3.141,0.093 1.019,-0.007 2.03,-0.023 3.139,-0.1 1.122,-0.077 2.305,-0.207 3.936,-0.566 -0.069,1.692 -1.114,3.146 -2.441,4.099 -1.342,0.958 -2.994,1.451 -4.633,1.445 -1.639,-10e-4 -3.289,-0.492 -4.631,-1.449 -1.326,-0.954 -2.371,-2.406 -2.445,-4.093 z"
             id="path2480" />
          <path
             inkscape:connector-curvature="0"
             style="fill:#bbd8ff"
             d="m 106.928,232.521 c 2.427,2.182 5.022,3.505 7.686,4.218 2.655,0.706 5.353,0.753 7.776,0.084 2.422,-0.671 4.715,-2.089 6.634,-4.052 1.923,-1.975 3.477,-4.435 4.454,-7.551 1.092,3.132 0.423,6.849 -1.382,9.85 -1.801,3.017 -4.809,5.475 -8.413,6.457 -3.601,0.992 -7.439,0.418 -10.529,-1.253 -3.084,-1.658 -5.558,-4.507 -6.226,-7.753 z"
             id="path2482" />
          <path
             inkscape:connector-curvature="0"
             style="fill:#bbd8ff"
             d="m 152.928,247.188 c 2.427,2.182 5.022,3.505 7.686,4.218 2.655,0.706 5.353,0.753 7.776,0.084 2.422,-0.671 4.715,-2.089 6.634,-4.052 1.923,-1.975 3.477,-4.435 4.454,-7.551 1.092,3.131 0.423,6.849 -1.382,9.85 -1.802,3.017 -4.809,5.475 -8.413,6.457 -3.6,0.992 -7.439,0.418 -10.529,-1.253 -3.084,-1.658 -5.558,-4.507 -6.226,-7.753 z"
             id="path2484" />
        </g>
        <g
           transform="matrix(0.26458333,0,0,0.30362739,191.11047,-24.255419)"
           id="g2622">
          <g
             id="g2614">
            <g
               id="fjpmgY.tif">
              <g
                 id="g2606">
                <path
                   inkscape:connector-curvature="0"
                   style="fill:#e8f6ff"
                   d="m 93.29,346.211 c 0.759,0.028 1.518,0.055 2.277,0.083 0.138,0.076 0.291,0.081 0.443,0.086 0.773,0.021 1.536,0.14 2.297,0.259 2.521,0.396 4.968,1.07 7.327,2.051 3.485,1.45 6.608,3.46 9.304,6.104 1.87,1.834 3.465,3.888 4.733,6.189 2.663,4.834 3.696,10.004 3.129,15.482 -0.259,2.501 -0.88,4.926 -1.837,7.259 -0.049,0.12 -0.133,0.238 -0.097,0.398 0.053,-0.027 0.088,-0.04 0.116,-0.062 3.804,-2.991 8.101,-3.85 12.771,-2.82 4.173,0.921 7.523,3.189 10.032,6.633 2.801,3.845 3.806,8.125 2.857,12.823 -0.098,0.484 -0.094,0.488 0.374,0.366 1.4,-0.364 2.805,-0.532 4.233,-0.143 1.486,0.405 2.809,1.13 4.059,2.01 2.428,1.709 3.989,3.976 4.548,6.918 0.147,0.774 0.177,1.554 0.258,2.331 -0.001,0.025 -0.002,0.051 -0.003,0.076 -0.028,0.135 -0.068,0.268 -0.082,0.404 -0.253,2.356 -1.095,4.446 -2.755,6.178 -0.206,0.215 -0.417,0.292 -0.701,0.288 -1.947,-0.029 -3.895,-0.033 -5.842,-0.076 -2.466,-0.055 -4.932,-0.086 -7.398,-0.118 -2.339,-0.031 -4.679,-0.075 -7.018,-0.107 -2.428,-0.033 -4.856,-0.077 -7.285,-0.111 -2.377,-0.033 -4.755,-0.082 -7.132,-0.109 -2.352,-0.028 -4.704,-0.074 -7.057,-0.105 -2.365,-0.032 -4.729,-0.077 -7.094,-0.108 -2.428,-0.032 -4.856,-0.085 -7.284,-0.111 -2.188,-0.023 -4.376,-0.063 -6.563,-0.094 -2.466,-0.036 -4.933,-0.076 -7.399,-0.11 -2.238,-0.03 -4.477,-0.07 -6.715,-0.098 -2.428,-0.031 -4.857,-0.074 -7.285,-0.108 -2.264,-0.032 -4.527,-0.081 -6.791,-0.098 -2.568,-0.019 -5.135,-0.071 -7.702,-0.118 -1.923,-0.035 -3.845,-0.086 -5.768,-0.128 -0.139,-0.003 -0.278,0.012 -0.417,0.015 -1.531,0.031 -3.059,-0.108 -4.59,-0.063 -0.213,0.006 -0.405,-0.084 -0.496,-0.291 -0.095,-0.216 -0.254,-0.376 -0.412,-0.539 -1.004,-1.039 -1.946,-2.128 -2.736,-3.343 -2.841,-4.373 -4.075,-9.117 -3.224,-14.31 0.688,-4.203 2.68,-7.693 6.009,-10.362 3.094,-2.481 6.69,-3.619 10.629,-3.692 1.857,-0.034 3.68,0.254 5.47,0.75 0.12,0.033 0.274,0.131 0.358,0.054 0.122,-0.112 -0.022,-0.256 -0.068,-0.376 -1.061,-2.763 -1.67,-5.615 -1.765,-8.581 -0.071,-2.238 0.127,-4.444 0.609,-6.628 0.646,-2.929 1.753,-5.672 3.28,-8.253 1.936,-3.274 4.418,-6.064 7.388,-8.424 2.442,-1.94 5.112,-3.496 8.002,-4.677 3.653,-1.494 7.446,-2.339 11.39,-2.523 0.541,-0.024 1.087,0.054 1.623,-0.071 z"
                   id="path2604" />
              </g>
            </g>
            <g
               id="fjpmgY.tif_1_">
              <g
                 id="g2611">
                <path
                   inkscape:connector-curvature="0"
                   style="fill:#bbd8ff"
                   d="m 160.086,411.861 c -17.877,0 -91.679,10.858 -91.679,-17.614 0,-5.134 2.525,-9.814 6.363,-12.867 -4.203,-9.555 -3.07,-21.18 1.728,-30.73 -1.473,0.834 -2.886,1.77 -4.223,2.833 -2.97,2.36 -5.453,5.151 -7.388,8.424 -1.526,2.581 -2.633,5.324 -3.28,8.253 -0.482,2.184 -0.681,4.39 -0.609,6.628 0.095,2.965 0.704,5.817 1.765,8.581 0.046,0.119 0.19,0.264 0.068,0.376 -0.084,0.078 -0.238,-0.02 -0.358,-0.054 -1.789,-0.497 -3.613,-0.785 -5.469,-0.75 -3.94,0.073 -7.535,1.211 -10.629,3.692 -3.329,2.669 -5.321,6.158 -6.009,10.361 -0.85,5.194 0.384,9.938 3.224,14.31 0.789,1.215 1.731,2.304 2.736,3.343 0.158,0.163 0.317,0.323 0.412,0.539 0.091,0.207 0.283,0.298 0.496,0.291 1.531,-0.046 3.06,0.093 4.59,0.063 0.139,-0.003 0.278,-0.018 0.417,-0.015 1.923,0.042 3.845,0.093 5.768,0.128 2.567,0.047 5.135,0.099 7.702,0.118 2.264,0.017 4.528,0.066 6.791,0.098 2.428,0.034 4.857,0.078 7.285,0.108 2.239,0.028 4.477,0.068 6.715,0.098 2.466,0.033 4.933,0.074 7.399,0.11 2.188,0.032 4.376,0.071 6.563,0.095 2.428,0.026 4.856,0.078 7.284,0.111 2.365,0.031 4.729,0.077 7.094,0.108 2.352,0.031 4.705,0.077 7.057,0.105 2.378,0.028 4.755,0.077 7.132,0.109 2.428,0.033 4.857,0.078 7.285,0.111 2.339,0.031 4.679,0.076 7.018,0.107 2.466,0.033 4.932,0.064 7.398,0.118 1.947,0.043 3.895,0.047 5.842,0.076 0.284,0.004 0.495,-0.073 0.701,-0.288 1.66,-1.732 2.502,-3.822 2.755,-6.178 0.015,-0.136 0.054,-0.27 0.082,-0.404 0.001,-0.025 0.002,-0.051 0.003,-0.076 -0.011,-0.106 -0.019,-0.212 -0.029,-0.318 z"
                   id="path2609" />
              </g>
            </g>
          </g>
          <path
             inkscape:connector-curvature="0"
             style="fill:#ffffff"
             d="m 117.812,373.203 c 0,9.886 -7.379,-3.579 -16.481,-3.579 -9.102,0 -16.481,13.466 -16.481,3.579 0,-9.886 7.379,-17.901 16.481,-17.901 9.102,0 16.481,8.015 16.481,17.901 z"
             id="path2616" />
          <path
             inkscape:connector-curvature="0"
             style="fill:#ffffff"
             d="m 129.14,389.844 c 4.943,0 8.95,3.689 8.95,8.241 0,4.551 -4.007,1.406 -8.95,1.406 -4.943,0 -8.951,3.145 -8.951,-1.406 0,-4.551 4.007,-8.241 8.951,-8.241 z"
             id="path2618" />
          <path
             inkscape:connector-curvature="0"
             style="fill:#bbd8ff"
             d="m 79.446,395.369 c 0.924,1.529 1.799,2.502 2.681,3.315 0.876,0.802 1.741,1.38 2.597,1.808 0.858,0.422 1.837,0.768 3.003,0.989 1.178,0.218 2.48,0.338 4.261,0.167 -0.475,1.763 -2.031,3.063 -3.794,3.641 -1.774,0.583 -3.854,0.474 -5.653,-0.435 -1.802,-0.901 -3.135,-2.499 -3.731,-4.268 -0.591,-1.759 -0.484,-3.78 0.636,-5.217 z"
             id="path2620" />
        </g>
        <g
           transform="matrix(0.26458333,0,0,0.30362739,188.54304,44.179291)"
           id="g2524">
          <g
             id="g2518">
            <g
               id="_x36_B3YvS.tif">
              <g
                 id="g2508">
                <path
                   inkscape:connector-curvature="0"
                   style="fill:#e8f6ff"
                   d="m 304.087,121.899 c 0,0.435 0,0.87 0,1.306 -0.086,0.508 -0.127,1.023 -0.245,1.526 -0.668,2.866 -2.304,5.082 -4.602,6.852 -1.003,0.773 -2.1,1.39 -3.265,1.885 -0.216,0.092 -0.345,0.211 -0.334,0.461 0.006,0.143 -0.031,0.288 -0.036,0.433 -0.047,1.184 -0.32,2.314 -0.827,3.383 -1.011,2.13 -2.579,3.781 -4.506,5.091 -3.348,2.277 -7.11,3.355 -11.108,3.642 -1.847,0.132 -3.697,0.017 -5.517,-0.368 -2.115,-0.447 -4.112,-1.175 -5.837,-2.527 -0.138,-0.108 -0.217,-0.069 -0.32,0.035 -0.326,0.327 -0.639,0.671 -0.991,0.97 -2.643,2.245 -5.712,3.377 -9.17,3.48 -1.501,0.045 -2.99,-0.053 -4.458,-0.379 -2.697,-0.6 -4.758,-2.063 -6.079,-4.517 -0.201,-0.374 -0.195,-0.378 -0.576,-0.191 -3.102,1.525 -6.381,2.115 -9.817,1.816 -1.798,-0.157 -3.539,-0.583 -5.201,-1.299 -3.768,-1.623 -6.627,-4.216 -8.377,-7.958 -1.438,-3.077 -1.769,-6.296 -1.046,-9.604 0.808,-3.699 2.741,-6.73 5.628,-9.165 1.971,-1.662 4.204,-2.825 6.675,-3.541 1.143,-0.331 2.306,-0.558 3.495,-0.644 0.33,-0.024 0.369,-0.096 0.204,-0.383 -0.226,-0.394 -0.414,-0.806 -0.601,-1.219 -0.998,-2.214 -1.574,-4.534 -1.692,-6.959 -0.068,-1.407 0.04,-2.807 0.32,-4.19 0.796,-3.934 2.746,-7.201 5.736,-9.852 1.466,-1.3 3.105,-2.348 4.891,-3.162 2.935,-1.337 6.014,-2.033 9.239,-2.084 0.198,-0.003 0.4,0.022 0.593,-0.049 0.145,0 0.29,0 0.435,0 0.101,0.052 0.211,0.051 0.319,0.049 0.991,-0.018 1.972,0.093 2.949,0.234 3.151,0.456 6.133,1.432 8.935,2.954 2.752,1.496 5.17,3.407 7.195,5.801 1.919,2.27 3.344,4.814 4.213,7.666 0.652,2.141 0.878,4.331 0.753,6.554 -0.082,1.461 -0.377,2.89 -0.836,4.283 -0.024,0.072 -0.1,0.164 -0.022,0.224 0.076,0.058 0.148,-0.037 0.215,-0.074 2.459,-1.336 5.101,-1.997 7.884,-2.12 1.133,-0.05 2.263,0.027 3.385,0.205 3.75,0.592 7.035,2.087 9.601,4.965 1.247,1.399 2.099,3.01 2.533,4.839 0.13,0.536 0.175,1.087 0.265,1.631 z"
                   id="path2506" />
              </g>
            </g>
            <g
               id="_x36_B3YvS.tif_1_">
              <g
                 id="g2515">
                <path
                   inkscape:connector-curvature="0"
                   style="fill:#bbd8ff"
                   d="m 237.178,110.982 c 0.116,0.258 0.238,0.514 0.364,0.767 2.171,-1.445 4.664,-2.572 7.242,-3.409 -0.308,-1.349 -0.475,-2.74 -0.48,-4.164 -0.016,-4.738 1.729,-9.487 4.318,-13.403 1.357,-2.053 2.925,-4.024 4.65,-5.878 -2.361,0.281 -4.64,0.922 -6.839,1.924 -1.786,0.814 -3.425,1.862 -4.891,3.162 -2.99,2.652 -4.94,5.919 -5.736,9.852 -0.28,1.383 -0.388,2.784 -0.32,4.19 0.118,2.425 0.694,4.745 1.692,6.959 z"
                   id="path2511" />
                <path
                   inkscape:connector-curvature="0"
                   style="fill:#bbd8ff"
                   d="m 290.378,132.369 c -1.301,1.277 -2.795,2.342 -4.293,3.08 -4.569,2.25 -10,3.122 -14.913,1.467 -1.248,-0.42 -2.412,-0.958 -3.502,-1.593 -2.993,3.997 -7.87,6.045 -12.852,4.377 -1.864,-0.624 -3.397,-1.605 -4.636,-2.839 -1.762,0.623 -3.634,0.936 -5.603,0.824 -7.297,-0.417 -14.1,-5.408 -14.309,-13.191 -0.136,-5.037 2.272,-8.899 5.871,-11.732 -0.695,0.115 -1.382,0.27 -2.062,0.467 -2.471,0.716 -4.705,1.88 -6.675,3.541 -2.887,2.435 -4.82,5.466 -5.628,9.165 -0.723,3.307 -0.392,6.527 1.046,9.604 1.749,3.742 4.608,6.335 8.377,7.958 1.662,0.716 3.403,1.142 5.201,1.299 3.436,0.3 6.715,-0.291 9.817,-1.816 0.381,-0.188 0.375,-0.183 0.576,0.191 1.321,2.454 3.382,3.918 6.079,4.517 1.468,0.326 2.957,0.424 4.458,0.379 3.458,-0.103 6.527,-1.235 9.17,-3.48 0.351,-0.298 0.665,-0.642 0.991,-0.97 0.103,-0.104 0.182,-0.143 0.32,-0.035 1.724,1.352 3.722,2.079 5.837,2.527 1.82,0.385 3.671,0.501 5.517,0.368 3.998,-0.286 7.76,-1.365 11.108,-3.642 1.927,-1.31 3.495,-2.961 4.506,-5.091 0.508,-1.07 0.781,-2.199 0.827,-3.383 0.006,-0.145 0.043,-0.289 0.036,-0.433 -0.011,-0.25 0.117,-0.369 0.334,-0.462 1.164,-0.495 2.261,-1.111 3.265,-1.885 0.842,-0.649 1.594,-1.358 2.244,-2.137 -3.464,1.661 -7.304,2.803 -11.107,2.925 z"
                   id="path2513" />
              </g>
            </g>
          </g>
          <path
             inkscape:connector-curvature="0"
             style="fill:#ffffff"
             d="m 273.713,104.647 c 0,5.254 -4.458,1.702 -9.956,1.702 -5.498,0 -9.956,3.552 -9.956,-1.702 0,-5.254 4.458,-9.513 9.956,-9.513 5.498,0 9.956,4.259 9.956,9.513 z"
             id="path2520" />
          <path
             inkscape:connector-curvature="0"
             style="fill:#bbd8ff"
             d="m 246.917,121.132 c 0.841,1.183 1.568,1.756 2.197,2.218 0.626,0.451 1.145,0.713 1.57,0.943 0.431,0.221 0.934,0.505 1.655,0.776 0.733,0.265 1.61,0.555 3.066,0.603 -0.081,1.488 -1.219,2.663 -2.566,3.201 -1.358,0.545 -3.031,0.495 -4.456,-0.278 -1.432,-0.761 -2.399,-2.125 -2.699,-3.556 -0.298,-1.418 0.046,-3.013 1.233,-3.907 z"
             id="path2522" />
        </g>
        <g
           id="g2546"
           transform="matrix(0.26458333,0,0,0.30362739,189.73812,52.306642)">
          <g
             id="g2536">
            <g
               id="gz7G9p.tif">
              <g
                 id="g2528">
                <path
                   style="fill:#e8f6ff"
                   d="m 367.191,83.024 c 1.346,0 2.692,0 4.038,0 0.911,0.111 1.827,0.196 2.733,0.339 6.665,1.046 12.469,3.775 17.082,8.803 2.812,3.066 4.672,6.624 5.495,10.713 0.063,0.313 0.062,0.647 0.213,0.957 0.05,-0.048 0.077,-0.064 0.09,-0.088 0.057,-0.102 0.108,-0.208 0.165,-0.31 1.645,-2.965 4.047,-5.049 7.267,-6.129 3.331,-1.117 6.639,-0.884 9.866,0.41 4.29,1.719 7.421,4.744 9.592,8.788 0.227,0.422 0.476,0.59 0.951,0.571 1.144,-0.044 2.274,0.115 3.394,0.344 4.264,0.872 7.664,2.951 9.681,6.949 0.183,0.362 0.372,0.215 0.592,0.08 1.41,-0.868 2.925,-1.267 4.594,-1.163 1.966,0.122 3.734,0.674 5.141,2.116 0.239,0.245 0.475,0.268 0.79,0.186 1.009,-0.263 2.04,-0.398 3.082,-0.34 1.515,0.085 2.982,0.408 4.37,1.039 2.742,1.246 4.82,3.167 6.012,5.972 0.506,1.191 0.696,2.44 0.622,3.731 -0.016,0.278 -0.011,0.547 0.255,0.749 0.6,0.457 1.076,1.035 1.485,1.661 0.957,1.463 1.39,3.058 1.064,4.8 -0.317,1.697 -1.317,2.936 -2.738,3.856 -1.422,0.921 -3.017,1.229 -4.68,1.265 -0.336,0.007 -0.622,0.046 -0.849,0.341 -0.841,1.094 -1.943,1.856 -3.204,2.38 -2.431,1.009 -4.917,1.06 -7.427,0.328 -0.323,-0.094 -0.533,-0.08 -0.751,0.208 -0.227,0.301 -0.516,0.558 -0.795,0.816 -1.615,1.492 -4.255,2.136 -6.189,0.667 -0.226,-0.171 -0.369,-0.083 -0.523,0.082 -0.45,0.483 -0.953,0.906 -1.482,1.299 -2.819,2.096 -5.957,2.923 -9.429,2.298 -2.497,-0.45 -4.592,-1.678 -6.369,-3.472 -0.352,-0.355 -0.353,-0.351 -0.482,0.127 -0.784,2.908 -2.395,5.282 -4.713,7.174 -3.323,2.714 -7.193,3.957 -11.437,4.064 -1.906,0.048 -3.792,-0.225 -5.622,-0.791 -3.744,-1.159 -6.833,-3.208 -8.922,-6.607 -0.06,-0.097 -0.102,-0.25 -0.221,-0.252 -0.162,-0.003 -0.17,0.181 -0.22,0.292 -0.997,2.22 -2.518,4.051 -4.339,5.616 -3.045,2.617 -6.544,4.447 -10.364,5.658 -3.282,1.041 -6.649,1.462 -10.082,1.174 -3.076,-0.258 -5.94,-1.247 -8.643,-2.717 -3.579,-1.947 -6.45,-4.622 -8.387,-8.237 -0.217,-0.405 -0.398,-0.491 -0.84,-0.345 -3.595,1.19 -7.103,-0.641 -8.074,-4.216 -0.265,-0.975 -0.375,-1.977 -0.25,-2.995 0.074,-0.598 0.02,-0.66 -0.542,-0.866 -1.82,-0.669 -3.306,-1.81 -4.495,-3.318 -2.523,-3.199 -3.406,-6.889 -2.989,-10.88 0.342,-3.27 1.594,-6.166 4.09,-8.405 2.131,-1.912 4.618,-2.74 7.486,-2.291 0.22,0.034 0.497,0.224 0.66,0.021 0.158,-0.196 -0.063,-0.436 -0.145,-0.644 -1.464,-3.691 -1.897,-7.495 -1.19,-11.405 1.007,-5.567 3.89,-10.041 8.175,-13.632 4.425,-3.708 9.588,-5.758 15.284,-6.522 0.704,-0.093 1.415,-0.166 2.124,-0.249 z"
                   id="path2526"
                   inkscape:connector-curvature="0" />
              </g>
            </g>
            <g
               id="gz7G9p.tif_1_">
              <g
                 id="g2533">
                <path
                   style="fill:#bbd8ff"
                   d="m 465.211,129.316 c -1.799,2.545 -4.357,4.517 -7.302,5.573 -2.518,0.903 -5.579,0.795 -8.036,-0.429 -0.519,0.157 -1.033,0.332 -1.543,0.516 -1.675,0.606 -3.317,1.337 -5.064,1.715 -2.417,0.523 -4.893,0.58 -7.21,-0.145 -2.745,2.837 -6.937,3.917 -10.872,2.719 -1.009,-0.307 -4.539,-2.582 -5.373,-3.142 -0.602,-0.404 -3.975,1.389 -4.684,1.688 -1.141,0.482 -2.07,1.342 -3.066,2.077 -5.764,4.255 -14.262,3.859 -20.438,0.607 -0.315,0.208 -0.634,0.407 -0.956,0.599 -0.953,1.378 -2.042,2.667 -3.233,3.841 -5.022,4.948 -12.056,8.417 -19.21,8.134 -7.628,-0.302 -13.873,-4.41 -18.279,-10.428 -1.488,-2.033 -2.626,-4.448 -3.308,-6.978 -2.513,-1.362 -4.385,-3.817 -4.818,-7.044 -0.702,-5.227 2.032,-8.976 5.774,-11.861 -0.6,-1.028 -1.135,-2.107 -1.597,-3.239 -2.554,-6.259 -1.733,-13.636 0.201,-20.104 -2.316,2.865 -3.899,6.179 -4.592,10.01 -0.707,3.91 -0.274,7.714 1.19,11.405 0.082,0.208 0.303,0.448 0.145,0.644 -0.163,0.203 -0.44,0.014 -0.66,-0.021 -2.869,-0.45 -5.355,0.379 -7.486,2.291 -2.496,2.24 -3.749,5.135 -4.09,8.405 -0.417,3.991 0.466,7.681 2.989,10.88 1.189,1.508 2.674,2.649 4.495,3.318 0.562,0.207 0.616,0.268 0.542,0.866 -0.125,1.017 -0.015,2.02 0.25,2.995 0.971,3.575 4.479,5.406 8.074,4.216 0.442,-0.146 0.624,-0.06 0.84,0.345 1.937,3.614 4.808,6.29 8.387,8.236 2.703,1.47 5.567,2.459 8.643,2.717 3.433,0.287 6.8,-0.133 10.082,-1.174 3.82,-1.212 7.319,-3.042 10.364,-5.658 1.821,-1.564 3.342,-3.396 4.339,-5.616 0.05,-0.111 0.059,-0.294 0.22,-0.292 0.12,0.002 0.162,0.155 0.221,0.252 2.089,3.398 5.178,5.448 8.922,6.607 1.83,0.566 3.716,0.839 5.622,0.791 4.245,-0.107 8.114,-1.351 11.437,-4.064 2.318,-1.892 3.929,-4.266 4.713,-7.174 0.129,-0.478 0.13,-0.482 0.482,-0.127 1.777,1.793 3.872,3.022 6.369,3.472 3.472,0.625 6.61,-0.201 9.429,-2.298 0.529,-0.393 1.032,-0.816 1.482,-1.299 0.154,-0.165 0.298,-0.254 0.523,-0.082 1.934,1.469 4.574,0.826 6.189,-0.667 0.279,-0.258 0.568,-0.515 0.795,-0.816 0.218,-0.288 0.428,-0.302 0.751,-0.208 2.51,0.732 4.996,0.681 7.427,-0.328 1.261,-0.523 2.362,-1.286 3.204,-2.38 0.227,-0.295 0.513,-0.333 0.849,-0.341 1.662,-0.036 3.258,-0.344 4.68,-1.265 1.421,-0.921 2.421,-2.159 2.738,-3.856 0.259,-1.385 0.032,-2.676 -0.551,-3.883 z"
                   id="path2531"
                   inkscape:connector-curvature="0" />
              </g>
            </g>
          </g>
          <path
             style="fill:#ffffff"
             d="m 388.79,102.045 c 0,5.254 -6.88,2.679 -15.368,2.679 -8.487,0 -15.368,2.575 -15.368,-2.679 0,-5.254 6.88,-9.514 15.368,-9.514 8.488,10e-4 15.368,4.26 15.368,9.514 z"
             id="path2538"
             inkscape:connector-curvature="0" />
          <path
             style="fill:#bbd8ff"
             d="m 361.199,123.901 c -0.861,2.973 -0.418,5.637 0.559,7.899 0.994,2.258 2.63,4.028 4.529,4.837 1.89,0.827 4.297,0.813 6.624,-0.003 2.316,-0.833 4.564,-2.325 6.153,-4.983 0.243,1.547 -0.152,3.219 -0.942,4.683 -0.798,1.469 -1.998,2.737 -3.426,3.697 -1.43,0.962 -3.11,1.604 -4.901,1.836 -1.789,0.23 -3.706,-0.002 -5.448,-0.754 -1.738,-0.761 -3.217,-2.002 -4.269,-3.466 -1.056,-1.465 -1.729,-3.133 -2.006,-4.831 -0.274,-1.698 -0.168,-3.439 0.358,-5.025 0.527,-1.578 1.477,-3.009 2.769,-3.89 z"
             id="path2540"
             inkscape:connector-curvature="0" />
          <path
             style="fill:#bbd8ff"
             d="m 428.624,118.933 c -0.861,2.973 -0.418,5.637 0.559,7.899 0.994,2.258 2.63,4.028 4.53,4.837 1.89,0.827 4.297,0.813 6.624,-0.003 2.316,-0.833 4.564,-2.325 6.153,-4.983 0.243,1.547 -0.152,3.219 -0.943,4.683 -0.798,1.469 -1.998,2.737 -3.426,3.697 -1.43,0.962 -3.11,1.604 -4.901,1.836 -1.789,0.23 -3.706,-0.002 -5.448,-0.754 -1.738,-0.761 -3.217,-2.002 -4.269,-3.466 -1.056,-1.465 -1.729,-3.133 -2.006,-4.832 -0.274,-1.698 -0.168,-3.439 0.358,-5.025 0.527,-1.576 1.476,-3.007 2.769,-3.889 z"
             id="path2542"
             inkscape:connector-curvature="0" />
          <path
             style="fill:#bbd8ff"
             d="m 393.874,128.372 c 1.601,0.442 2.815,0.812 3.897,1.014 1.076,0.212 1.905,0.235 2.625,0.169 0.509,-0.04 1.25,-0.223 2.033,-0.661 0.393,-0.215 0.788,-0.48 1.173,-0.859 0.389,-0.383 0.75,-0.9 0.961,-1.729 0.769,0.383 1.259,1.25 1.395,2.17 0.137,0.928 -0.063,1.889 -0.469,2.731 -0.815,1.668 -2.518,3.015 -4.672,3.208 -1.94,0.176 -3.78,-0.597 -4.981,-1.73 -1.21,-1.15 -1.964,-2.639 -1.962,-4.313 z"
             id="path2544"
             inkscape:connector-curvature="0" />
        </g>
      </g>
    </g>
  </g>
</svg>
